<svg xmlns="http://www.w3.org/2000/svg" viewBox="0 0 100 100" aria-hidden="true" shape-rendering="crispEdges"><g><polygon points="90.9,57.1 90.1,32.4 88.7,49.7" fill="currentColor"/><polygon points="13.6,80.2 26.6,83.9 6.3,69.2" fill="currentColor"/><polygon points="47.0,79.7 41.3,87.3 62.7,84.0" fill="currentColor"/><polygon points="26.6,83.9 41.3,87.3 47.0,79.7" fill="currentColor"/><polygon points="90.9,57.1 88.7,49.7 81.4,72.9" fill="currentColor"/><polygon points="14.7,24.2 23.5,28.0 37.3,16.1" fill="currentColor"/><polygon points="88.7,49.7 90.1,32.4 85.2,20.9" fill="currentColor"/><polygon points="5.0,42.2 23.5,28.0 14.7,24.2" fill="currentColor"/><polygon points="57.9,16.4 85.2,20.9 74.4,14.6" fill="currentColor"/><polygon points="47.0,79.7 62.7,84.0 66.3,83.0" fill="currentColor"/><polygon points="32.3,71.7 6.3,69.2 26.6,83.9" fill="currentColor"/><polygon points="32.3,71.7 26.6,83.9 47.0,79.7" fill="currentColor"/><polygon points="42.2,18.4 57.9,16.4 37.3,16.1" fill="currentColor"/><polygon points="23.0,51.6 5.0,42.2 6.3,69.2" fill="currentColor"/><polygon points="81.4,72.9 88.7,49.7 73.7,64.7" fill="currentColor"/><polygon points="23.5,28.0 42.2,18.4 37.3,16.1" fill="currentColor"/><polygon points="81.4,72.9 73.7,64.7 66.3,83.0" fill="currentColor"/><polygon points="5.0,42.2 23.0,51.6 23.5,28.0" fill="currentColor"/><polygon points="32.3,71.7 23.0,51.6 6.3,69.2" fill="currentColor"/><polygon points="52.4,74.0 47.0,79.7 66.3,83.0" fill="currentColor"/><polygon points="52.4,74.0 32.3,71.7 47.0,79.7" fill="currentColor"/><polygon points="88.7,49.7 85.2,20.9 78.2,42.3" fill="currentColor"/><polygon points="57.9,16.4 62.0,24.1 85.2,20.9" fill="currentColor"/><polygon points="42.2,18.4 62.0,24.1 57.9,16.4" fill="currentColor"/><polygon points="88.7,49.7 78.2,42.3 73.7,64.7" fill="currentColor"/><polygon points="73.7,64.7 52.4,74.0 66.3,83.0" fill="currentColor"/><polygon points="23.5,28.0 37.8,36.5 42.2,18.4" fill="currentColor"/><polygon points="23.5,28.0 23.0,51.6 37.8,36.5" fill="currentColor"/><polygon points="38.2,59.5 23.0,51.6 32.3,71.7" fill="currentColor"/><polygon points="62.0,24.1 78.2,42.3 85.2,20.9" fill="currentColor"/><polygon points="38.2,59.5 32.3,71.7 52.4,74.0" fill="currentColor"/><polygon points="62.0,24.1 42.2,18.4 37.8,36.5" fill="currentColor"/><polygon points="23.0,51.6 38.2,59.5 37.8,36.5" fill="currentColor"/><polygon points="73.7,64.7 58.8,51.6 52.4,74.0" fill="currentColor"/><polygon points="78.2,42.3 58.8,51.6 73.7,64.7" fill="currentColor"/><polygon points="78.2,42.3 62.0,24.1 58.8,51.6" fill="currentColor"/><polygon points="58.8,51.6 38.2,59.5 52.4,74.0" fill="currentColor"/><polygon points="58.8,51.6 62.0,24.1 37.8,36.5" fill="currentColor"/><polygon points="58.8,51.6 37.8,36.5 38.2,59.5" fill="currentColor"/></g><g><polygon points="90.9,57.1 90.1,32.4 88.7,49.7" fill="#000" fill-opacity="0.35"/><polygon points="13.6,80.2 26.6,83.9 6.3,69.2" fill="#000" fill-opacity="0.27"/><polygon points="47.0,79.7 41.3,87.3 62.7,84.0" fill="#000" fill-opacity="0.35"/><polygon points="26.6,83.9 41.3,87.3 47.0,79.7" fill="#000" fill-opacity="0.35"/><polygon points="90.9,57.1 88.7,49.7 81.4,72.9" fill="#000" fill-opacity="0.35"/><polygon points="14.7,24.2 23.5,28.0 37.3,16.1" fill="#fff" fill-opacity="0.54"/><polygon points="88.7,49.7 90.1,32.4 85.2,20.9" fill="#000" fill-opacity="0.35"/><polygon points="5.0,42.2 23.5,28.0 14.7,24.2" fill="#fff" fill-opacity="0.55"/><polygon points="57.9,16.4 85.2,20.9 74.4,14.6" fill="#fff" fill-opacity="0.34"/><polygon points="47.0,79.7 62.7,84.0 66.3,83.0" fill="#000" fill-opacity="0.35"/><polygon points="32.3,71.7 6.3,69.2 26.6,83.9" fill="#000" fill-opacity="0.15"/><polygon points="32.3,71.7 26.6,83.9 47.0,79.7" fill="#000" fill-opacity="0.29"/><polygon points="42.2,18.4 57.9,16.4 37.3,16.1" fill="#fff" fill-opacity="0.36"/><polygon points="23.0,51.6 5.0,42.2 6.3,69.2" fill="#fff" fill-opacity="0.32"/><polygon points="81.4,72.9 88.7,49.7 73.7,64.7" fill="#000" fill-opacity="0.35"/><polygon points="23.5,28.0 42.2,18.4 37.3,16.1" fill="#fff" fill-opacity="0.52"/><polygon points="81.4,72.9 73.7,64.7 66.3,83.0" fill="#000" fill-opacity="0.35"/><polygon points="5.0,42.2 23.0,51.6 23.5,28.0" fill="#fff" fill-opacity="0.46"/><polygon points="32.3,71.7 23.0,51.6 6.3,69.2" fill="#fff" fill-opacity="0.08"/><polygon points="52.4,74.0 47.0,79.7 66.3,83.0" fill="#000" fill-opacity="0.32"/><polygon points="52.4,74.0 32.3,71.7 47.0,79.7" fill="#000" fill-opacity="0.33"/><polygon points="88.7,49.7 85.2,20.9 78.2,42.3" fill="#000" fill-opacity="0.26"/><polygon points="57.9,16.4 62.0,24.1 85.2,20.9" fill="#fff" fill-opacity="0.37"/><polygon points="42.2,18.4 62.0,24.1 57.9,16.4" fill="#fff" fill-opacity="0.35"/><polygon points="88.7,49.7 78.2,42.3 73.7,64.7" fill="#000" fill-opacity="0.32"/><polygon points="73.7,64.7 52.4,74.0 66.3,83.0" fill="#000" fill-opacity="0.24"/><polygon points="23.5,28.0 37.8,36.5 42.2,18.4" fill="#fff" fill-opacity="0.55"/><polygon points="23.5,28.0 23.0,51.6 37.8,36.5" fill="#fff" fill-opacity="0.44"/><polygon points="38.2,59.5 23.0,51.6 32.3,71.7" fill="#fff" fill-opacity="0.02"/><polygon points="62.0,24.1 78.2,42.3 85.2,20.9" fill="#fff" fill-opacity="0.03"/><polygon points="38.2,59.5 32.3,71.7 52.4,74.0" fill="#000" fill-opacity="0.12"/><polygon points="62.0,24.1 42.2,18.4 37.8,36.5" fill="#fff" fill-opacity="0.54"/><polygon points="23.0,51.6 38.2,59.5 37.8,36.5" fill="#fff" fill-opacity="0.33"/><polygon points="73.7,64.7 58.8,51.6 52.4,74.0" fill="#000" fill-opacity="0.23"/><polygon points="78.2,42.3 58.8,51.6 73.7,64.7" fill="#000" fill-opacity="0.21"/><polygon points="78.2,42.3 62.0,24.1 58.8,51.6" fill="#fff" fill-opacity="0.06"/><polygon points="58.8,51.6 38.2,59.5 52.4,74.0" fill="#000" fill-opacity="0.06"/><polygon points="58.8,51.6 62.0,24.1 37.8,36.5" fill="#fff" fill-opacity="0.33"/><polygon points="58.8,51.6 37.8,36.5 38.2,59.5" fill="#fff" fill-opacity="0.26"/></g></svg>